<svg width="1075" height="180" viewBox="0 0 1075 180" fill="none" xmlns="http://www.w3.org/2000/svg">
<g clip-path="url(#clip0_7_23)">
<rect x="116.428" y="-116.444" width="43.8889" height="324.472" transform="rotate(45 116.428 -116.444)" fill="#DC2626"/>
<rect x="154.243" y="-79.757" width="43.8889" height="324.472" transform="rotate(45 154.243 -79.757)" fill="#3F3F46"/>
<rect x="190.92" y="-41.9523" width="43.8889" height="324.472" transform="rotate(45 190.92 -41.9523)" fill="#DC2626"/>
<rect x="228.735" y="-5.26514" width="43.8889" height="324.472" transform="rotate(45 228.735 -5.26514)" fill="#3F3F46"/>
<rect x="265.966" y="31.9659" width="43.8889" height="324.472" transform="rotate(45 265.966 31.9659)" fill="#DC2626"/>
</g>
<path d="M305.67 117.06C303.517 124.313 300.117 130.377 295.47 135.25C290.823 140.123 285.327 143.75 278.98 146.13C272.633 148.51 265.663 149.7 258.07 149.7C246.963 149.7 237.33 147.377 229.17 142.73C221.123 138.083 214.89 131.453 210.47 122.84C206.163 114.227 204.01 103.913 204.01 91.9C204.01 79.8867 206.163 69.5733 210.47 60.96C214.89 52.3467 221.123 45.7167 229.17 41.07C237.33 36.4233 246.85 34.1 257.73 34.1C265.437 34.1 272.407 35.1767 278.64 37.33C284.873 39.37 290.143 42.6 294.45 47.02C298.87 51.3267 302.1 56.71 304.14 63.17L282.89 72.18C280.963 65.38 278.017 60.5633 274.05 57.73C270.083 54.7833 264.983 53.31 258.75 53.31C252.63 53.31 247.247 54.7833 242.6 57.73C238.067 60.6767 234.553 65.04 232.06 70.82C229.567 76.4867 228.32 83.5133 228.32 91.9C228.32 100.173 229.453 107.2 231.72 112.98C234.1 118.76 237.557 123.123 242.09 126.07C246.623 129.017 252.177 130.49 258.75 130.49C264.87 130.49 270.14 128.847 274.56 125.56C279.093 122.273 282.267 117.287 284.08 110.6L305.67 117.06ZM349.125 35.8V148H325.665V35.8H349.125ZM474.682 35.8V148H447.822L408.552 82.04L398.862 63.68H398.692L399.372 83.06V148H378.292V35.8H404.982L444.252 101.59L453.942 120.12H454.282L453.602 100.74V35.8H474.682ZM503.966 148V35.8H588.116V54.67H527.426V82.55H575.196V100.57H527.426V129.13H590.496V148H503.966Z" fill="#F1F5F9"/>
<path d="M632.794 148L600.154 35.8H625.144L647.244 128.45L669.684 35.8H692.124L714.904 128.45L736.834 35.8H760.804L728.164 148H701.814L686.174 86.8L680.904 60.28H680.564L675.294 86.8L659.824 148H632.794ZM867.831 148H843.521L834.171 120.63H791.161L781.811 148H757.841L798.811 35.8H826.861L867.831 148ZM796.431 103.29H828.901L812.581 54.33L796.431 103.29ZM907.934 129.13H967.094V148H884.474V35.8H907.934V129.13ZM1010.03 129.13H1069.19V148H986.573V35.8H1010.03V129.13Z" fill="#DC2626"/>
<defs>
<clipPath id="clip0_7_23">
<rect width="180" height="180" fill="white"/>
</clipPath>
</defs>
</svg>
